<?xml version="1.0" encoding="UTF-8"?>
<svg id="Layer_1" data-name="Layer 1" xmlns="http://www.w3.org/2000/svg" viewBox="0 0 295 295">
  <defs>
    <style>
      .cls-1 {
        opacity: .5;
      }

      .cls-2 {
        opacity: .7;
      }

      .cls-3 {
        fill: #fff;
        stroke-width: 0px;
      }
    </style>
  </defs>
  <g class="cls-2">
    <path class="cls-3" d="M257.62,83.98c-1.78-4.95-4.54-9.57-8.18-13.55-10.47-15.11-24.4-28.16-41.46-37.83-.14-.08-.28-.15-.42-.23C147.44-1.44,71.37,19.28,36.65,78.72l.14.08c11.3-18.41,35.24-24.69,54.18-13.95,1.03.58,2.01,1.21,2.96,1.87,27.84-19.86,65.68-23.3,97.5-5.88.41.23.83.43,1.24.66,1.55.88,3.05,1.8,4.53,2.76,6.57,4.24,12.43,9.2,17.54,14.73,4.73-1.27,9.95-.76,14.54,1.84,3.11,1.76,5.53,4.28,7.19,7.17,3.3,5.74,3.58,13.02.09,19.18-.76,1.34-1.67,2.53-2.67,3.61-2.42,2.6-5.47,4.44-8.77,5.4-4.83,1.4-10.2.94-14.91-1.73-3.13-1.77-5.55-4.31-7.22-7.22-3.27-5.73-3.54-12.98-.06-19.13.82-1.44,1.81-2.72,2.91-3.86-4.82-4.93-10.34-9.32-16.51-13.02-.54-.32-1.07-.66-1.62-.97-.41-.23-.83-.44-1.24-.66-27.6-15.04-60.27-12.48-84.83,4.03,10.48,12.18,13.31,30.14,5.5,45.08,12.64-20.52,39.26-27.6,60.46-15.86.14.08.28.15.42.22,6.69,3.8,12.04,9.04,15.89,15.11,3.47,6.06,9.44,10.8,15.96,14.49,9.19,5.21,19.56,6.41,29.1,4.17,3.41-.8,6.71-2.05,9.81-3.71,6.49-3.47,12.1-8.75,16-15.62,6.04-10.64,6.69-22.86,2.84-33.53Z"/>
    <path class="cls-3" d="M215.16,105.7c1.96,1.11,4.16,1.43,6.22,1.05,2.61-.47,5.01-2.06,6.42-4.54.55-.97.89-2,1.07-3.04.36-2.13-.05-4.32-1.12-6.17-.8-1.38-1.95-2.58-3.44-3.42-.53-.3-1.07-.54-1.63-.72-3.69-1.24-7.8-.01-10.22,3.06-.28.36-.55.74-.79,1.15-1.67,2.94-1.54,6.41.02,9.16.8,1.4,1.96,2.62,3.47,3.48Z"/>
  </g>
  <g class="cls-1">
    <path class="cls-3" d="M265.02,101.18c-2.04-5.9-4.51-11.65-7.41-17.2,3.84,10.67,3.19,22.89-2.84,33.53-3.9,6.87-9.51,12.15-16,15.62.42,4.61.51,9.27.23,13.93-.82,13.53-4.64,27.07-11.76,39.63-7.12,12.56-16.79,22.79-27.98,30.43-3.91,2.67-8.01,5.01-12.25,7.04-6.69,3.19-13.73,5.56-20.96,7.07-.34,2.28-1.08,4.54-2.28,6.66-3.49,6.15-9.87,9.64-16.48,9.77-3.35.06-6.75-.72-9.87-2.49-5.39-3.06-8.73-8.33-9.57-14.03-.49-3.33-.12-6.79,1.21-10.06.31-.76.66-1.52,1.07-2.26,3.46-6.11,9.78-9.59,16.33-9.76,3.39-.09,6.85.69,10.02,2.48,3.97,2.25,6.83,5.72,8.4,9.67,6.84-1.51,13.48-3.89,19.74-7.09,13.76-7.02,25.68-17.99,33.85-32.4,8.03-14.16,11.34-29.73,10.47-44.89-9.53,2.25-19.91,1.05-29.1-4.17-6.52-3.7-12.49-8.43-15.96-14.49,8.67,13.67,9.7,31.56,1.16,46.62-8.27,14.58-23.41,22.8-39.04,22.94-13.69.33-26.86,7.96-34.11,20.74-.98,1.73-1.82,3.5-2.52,5.31-1.28,3.28-2.1,6.65-2.48,10.04-1.75,15.55,5.69,31.36,20.16,39.57,6.53,3.7,13.65,5.37,20.64,5.23v.13c8.01-.14,15.97-1.04,23.76-2.67,34.27-7.17,65.42-28.46,84.05-61.32,18.63-32.85,20.92-70.5,9.49-103.6Z"/>
    <path class="cls-3" d="M151.53,220.3c-1.53-.87-3.2-1.24-4.84-1.19-2.74.08-5.38,1.38-7.11,3.65-.25.32-.48.66-.69,1.02-1.64,2.89-1.54,6.29-.06,9.01.8,1.47,1.99,2.74,3.55,3.62,1.48.84,3.1,1.22,4.69,1.19,3.18-.05,6.26-1.72,7.94-4.68.01-.02.02-.05.04-.07,1.82-3.28,1.44-7.2-.68-10.04-.74-1-1.7-1.87-2.85-2.52Z"/>
  </g>
  <g>
    <path class="cls-3" d="M72.25,109.07c2.8-.36,5.41-1.97,6.91-4.61.24-.42.43-.85.6-1.29.92-2.42.76-5.05-.31-7.29-.79-1.65-2.07-3.08-3.77-4.05-1.52-.86-3.19-1.24-4.83-1.19-2.68.08-5.27,1.32-7,3.5-.29.37-.57.75-.8,1.17-1.71,3.01-1.53,6.59.14,9.36.79,1.32,1.92,2.46,3.35,3.27,1.8,1.02,3.81,1.36,5.72,1.12Z"/>
    <path class="cls-3" d="M147.73,268.63c-6.99.14-14.12-1.53-20.64-5.23-14.47-8.21-21.91-24.02-20.16-39.57-1.64-.8-3.27-1.65-4.87-2.56-.41-.23-.8-.49-1.21-.73-30.28-17.79-46.68-50.45-45.19-83.46.33-7.33,1.55-14.67,3.69-21.87-7.54-5.77-9.88-16.37-5.07-24.86.24-.42.5-.81.76-1.2,4.94-7.4,14.29-10.39,22.53-7.46,1.04.37,2.07.82,3.06,1.38,2.06,1.17,3.8,2.67,5.24,4.39,4.75,5.66,5.97,13.74,2.68,20.7-.2.43-.4.85-.64,1.27-3.97,7-11.68,10.57-19.21,9.64-1.94,6.83-2.96,13.8-3.09,20.73-.51,28.57,14,56.54,40.2,71.99.4.24.8.49,1.21.73.79.45,1.59.86,2.39,1.28.7-1.8,1.53-3.57,2.52-5.31,7.25-12.78,20.42-20.41,34.11-20.74-7.7.07-15.52-1.82-22.7-5.89-.14-.08-.27-.17-.41-.25-21.44-12.45-28.9-39.87-16.64-61.49.27-.48.56-.95.85-1.42,7.81-14.95,4.98-32.9-5.5-45.08-2.22-2.58-4.8-4.9-7.7-6.9-.95-.66-1.94-1.28-2.96-1.87-18.94-10.74-42.88-4.46-54.18,13.95l-.14-.08c-.28.48-.56.95-.83,1.43C1.48,140.69,22.59,217.56,82.95,252.09c.14.08.27.16.41.24,20.35,11.54,42.55,16.81,64.37,16.43v-.13Z"/>
  </g>
</svg>