<?xml version="1.0" encoding="UTF-8"?>
<svg id="Layer_1" data-name="Layer 1" xmlns="http://www.w3.org/2000/svg" viewBox="0 0 771 295">
  <defs>
    <style>
      .cls-1 {
        letter-spacing: -.02em;
      }

      .cls-2 {
        letter-spacing: 0em;
      }

      .cls-3 {
        font-family: CoHeadline-Regular, 'Co Headline';
        font-size: 77.74px;
      }

      .cls-3, .cls-4 {
        fill: #003c57;
      }

      .cls-5 {
        opacity: .6;
      }

      .cls-6 {
        opacity: .8;
      }

      .cls-7 {
        letter-spacing: 0em;
      }

      .cls-8 {
        letter-spacing: 0em;
      }

      .cls-4 {
        stroke-width: 0px;
      }
    </style>
  </defs>
  <g>
    <text class="cls-3" transform="translate(285.88 131.55)"><tspan class="cls-1" x="0" y="0">R</tspan><tspan class="cls-8" x="50.69" y="0">eCognition</tspan></text>
    <text class="cls-3" transform="translate(283.08 211.38)"><tspan x="0" y="0">Ci</tspan><tspan class="cls-7" x="70.35" y="0">r</tspan><tspan class="cls-2" x="101.91" y="0">cular</tspan></text>
  </g>
  <g>
    <g class="cls-6">
      <path class="cls-4" d="M248.73,93.21c-1.62-4.49-4.11-8.68-7.41-12.28-9.49-13.69-22.11-25.52-37.57-34.28-.13-.07-.25-.14-.38-.21-54.49-30.64-123.42-11.86-154.9,42.01l.13.07c10.24-16.68,31.94-22.37,49.1-12.64.93.53,1.82,1.1,2.69,1.69,25.23-18,59.52-21.11,88.35-5.33.37.2.75.39,1.12.6,1.4.8,2.76,1.63,4.1,2.5,5.95,3.84,11.27,8.34,15.9,13.35,4.29-1.15,9.01-.69,13.17,1.67,2.82,1.6,5.01,3.87,6.51,6.5,2.99,5.2,3.25,11.8.08,17.38-.69,1.21-1.51,2.3-2.42,3.27-2.19,2.36-4.95,4.03-7.95,4.89-4.38,1.27-9.24.85-13.51-1.57-2.83-1.61-5.03-3.9-6.54-6.55-2.96-5.19-3.21-11.77-.05-17.33.74-1.31,1.64-2.46,2.64-3.5-4.37-4.47-9.37-8.45-14.97-11.8-.49-.29-.97-.6-1.46-.88-.37-.21-.75-.4-1.13-.6-25.01-13.63-54.61-11.31-76.87,3.65,9.5,11.04,12.06,27.31,4.98,40.86,11.45-18.6,35.58-25.01,54.79-14.37.13.07.25.13.38.2,6.06,3.44,10.91,8.19,14.4,13.7,3.14,5.49,8.55,9.78,14.46,13.13,8.33,4.72,17.73,5.81,26.37,3.77,3.09-.73,6.08-1.86,8.89-3.36,5.88-3.15,10.97-7.93,14.5-14.15,5.47-9.64,6.06-20.72,2.58-30.39Z"/>
      <path class="cls-4" d="M210.26,112.89c1.78,1.01,3.77,1.29,5.63.95,2.37-.43,4.54-1.86,5.81-4.12.5-.88.81-1.81.97-2.76.32-1.93-.05-3.91-1.01-5.59-.72-1.25-1.77-2.34-3.12-3.1-.48-.27-.97-.49-1.48-.66-3.34-1.12-7.07-.01-9.26,2.77-.26.33-.5.67-.71,1.04-1.51,2.66-1.39,5.81.02,8.3.72,1.27,1.78,2.38,3.14,3.15Z"/>
    </g>
    <g class="cls-5">
      <path class="cls-4" d="M255.44,108.8c-1.85-5.34-4.09-10.55-6.71-15.59,3.48,9.67,2.89,20.75-2.58,30.39-3.53,6.23-8.62,11.01-14.5,14.15.38,4.18.46,8.4.21,12.62-.74,12.26-4.2,24.53-10.66,35.92-6.46,11.38-15.22,20.65-25.36,27.58-3.54,2.42-7.26,4.54-11.1,6.38-6.06,2.89-12.44,5.04-18.99,6.41-.31,2.07-.98,4.11-2.07,6.03-3.16,5.58-8.95,8.74-14.94,8.85-3.03.06-6.12-.65-8.94-2.25-4.88-2.77-7.91-7.55-8.67-12.72-.44-3.02-.1-6.16,1.1-9.11.28-.69.59-1.38.97-2.05,3.14-5.54,8.86-8.69,14.8-8.85,3.08-.08,6.21.62,9.08,2.25,3.6,2.04,6.19,5.18,7.62,8.76,6.2-1.37,12.21-3.53,17.89-6.42,12.47-6.36,23.27-16.3,30.68-29.36,7.28-12.83,10.28-26.94,9.49-40.68-8.64,2.04-18.04.95-26.37-3.77-5.9-3.35-11.32-7.64-14.46-13.13,7.85,12.39,8.79,28.6,1.05,42.25-7.49,13.21-21.21,20.66-35.38,20.79-12.41.3-24.34,7.22-30.91,18.8-.89,1.57-1.64,3.18-2.28,4.81-1.16,2.97-1.9,6.03-2.25,9.1-1.59,14.09,5.16,28.42,18.27,35.86,5.92,3.35,12.37,4.87,18.71,4.74v.12c7.26-.12,14.47-.94,21.54-2.42,31.06-6.5,59.28-25.79,76.17-55.57,16.88-29.77,18.96-63.89,8.6-93.88Z"/>
      <path class="cls-4" d="M152.59,216.75c-1.39-.79-2.9-1.12-4.39-1.08-2.48.08-4.88,1.25-6.44,3.31-.22.29-.43.6-.62.93-1.48,2.62-1.4,5.7-.05,8.17.72,1.33,1.81,2.48,3.22,3.28,1.34.76,2.81,1.1,4.25,1.08,2.88-.04,5.67-1.56,7.2-4.24.01-.02.02-.04.03-.06,1.65-2.97,1.3-6.53-.61-9.1-.67-.91-1.54-1.69-2.58-2.28Z"/>
    </g>
    <g>
      <path class="cls-4" d="M80.74,115.95c2.54-.32,4.9-1.78,6.26-4.18.22-.38.39-.77.54-1.17.83-2.19.69-4.58-.28-6.6-.72-1.49-1.87-2.79-3.42-3.67-1.38-.78-2.89-1.12-4.37-1.08-2.43.07-4.78,1.19-6.34,3.18-.26.33-.51.68-.73,1.06-1.55,2.73-1.39,5.97.12,8.49.72,1.19,1.74,2.23,3.04,2.96,1.64.93,3.45,1.23,5.19,1.01Z"/>
      <path class="cls-4" d="M149.14,260.55c-6.34.13-12.79-1.39-18.71-4.74-13.11-7.44-19.86-21.77-18.27-35.86-1.48-.73-2.96-1.49-4.42-2.32-.37-.21-.73-.44-1.09-.66-27.44-16.12-42.3-45.72-40.95-75.63.3-6.64,1.4-13.3,3.34-19.82-6.83-5.23-8.95-14.84-4.59-22.53.21-.38.45-.73.69-1.09,4.48-6.71,12.95-9.42,20.42-6.76.94.34,1.87.74,2.77,1.25,1.87,1.06,3.44,2.42,4.75,3.97,4.31,5.13,5.41,12.45,2.42,18.75-.18.39-.36.77-.58,1.15-3.6,6.34-10.58,9.58-17.41,8.73-1.76,6.19-2.69,12.5-2.8,18.79-.46,25.89,12.69,51.24,36.43,65.24.37.22.72.45,1.09.66.72.41,1.44.78,2.16,1.16.64-1.63,1.39-3.24,2.28-4.81,6.57-11.58,18.51-18.5,30.91-18.8-6.98.06-14.06-1.65-20.57-5.34-.13-.07-.24-.15-.37-.22-19.43-11.29-26.19-36.13-15.08-55.72.25-.44.51-.86.77-1.29,7.07-13.55,4.51-29.81-4.98-40.86-2.01-2.34-4.35-4.44-6.98-6.25-.86-.59-1.76-1.16-2.69-1.69-17.16-9.73-38.86-4.04-49.1,12.64l-.13-.07c-.25.43-.51.86-.76,1.29-31.12,54.86-11.98,124.52,42.72,155.81.12.07.25.15.37.22,18.44,10.46,38.56,15.23,58.33,14.89v-.12Z"/>
    </g>
  </g>
</svg>