<?xml version="1.0" encoding="UTF-8"?>
<svg id="Layer_1" data-name="Layer 1" xmlns="http://www.w3.org/2000/svg" viewBox="0 0 295 295">
  <defs>
    <style>
      .cls-1 {
        fill: #45ae6c;
      }

      .cls-1, .cls-2, .cls-3, .cls-4 {
        stroke-width: 0px;
      }

      .cls-2 {
        fill: #d3d94f;
      }

      .cls-3 {
        fill: #2e767b;
      }

      .cls-4 {
        fill: #fff;
      }
    </style>
  </defs>
  <g>
    <path class="cls-1" d="M80.26,105.2c.24-.42.43-.85.59-1.29.91-2.4.76-5.02-.31-7.24-.78-1.64-2.05-3.07-3.75-4.03-1.52-.86-3.17-1.23-4.8-1.18-2.67.08-5.24,1.31-6.96,3.48-.29.37-.56.75-.8,1.17-1.7,3-1.53,6.55.14,9.31.79,1.31,1.91,2.44,3.33,3.25,1.79,1.02,3.79,1.35,5.69,1.11,2.79-.35,5.38-1.96,6.87-4.58Z"/>
    <path class="cls-1" d="M38.13,79.68l-.14-.08c-.28.47-.56.94-.83,1.42-34.14,60.19-13.14,136.62,46.87,170.95.14.08.27.16.41.24,20.24,11.48,42.31,16.71,64,16.34v-.13c-6.96.14-14.04-1.52-20.53-5.2-14.39-8.16-21.79-23.88-20.05-39.34-1.63-.8-3.25-1.64-4.85-2.54-.41-.23-.8-.48-1.2-.72-30.11-17.68-46.41-50.16-44.93-82.98.33-7.29,1.54-14.59,3.67-21.75-7.49-5.74-9.82-16.28-5.04-24.72.23-.41.5-.8.76-1.19,4.92-7.36,14.21-10.33,22.4-7.42,1.03.37,2.05.81,3.04,1.37,2.05,1.16,3.78,2.66,5.21,4.36,4.72,5.63,5.94,13.66,2.66,20.58-.2.42-.4.85-.63,1.26-3.95,6.96-11.61,10.51-19.1,9.58-1.93,6.79-2.95,13.72-3.07,20.61-.5,28.41,13.92,56.22,39.97,71.58.4.24.79.49,1.2.72.78.45,1.58.85,2.37,1.27.7-1.79,1.53-3.55,2.5-5.28,7.21-12.7,20.31-19.96,33.92-20.28v-.34c-7.66.07-15.44-1.81-22.57-5.85-.14-.08-.27-.16-.41-.24-21.32-12.38-28.74-39.64-16.55-61.14.27-.48.56-.94.85-1.41,7.76-14.86,4.95-32.71-5.47-44.83-2.2-2.56-4.77-4.87-7.66-6.86-.95-.65-1.93-1.28-2.95-1.85-18.83-10.68-42.63-4.43-53.87,13.87Z"/>
  </g>
  <g>
    <path class="cls-3" d="M207.94,33.51C148.15-.1,72.52,20.51,37.99,79.6l.14.08c11.24-18.3,35.04-24.55,53.87-13.87,1.02.58,2,1.2,2.95,1.85,27.68-19.74,65.31-23.16,96.94-5.85.41.22.83.43,1.23.66,1.54.87,3.03,1.79,4.5,2.74,6.53,4.22,12.36,9.15,17.44,14.64,4.71-1.26,9.89-.76,14.45,1.83,3.09,1.75,5.49,4.25,7.15,7.13,3.28,5.71,3.56,12.94.09,19.07-.75,1.33-1.66,2.52-2.65,3.59-2.41,2.59-5.43,4.42-8.72,5.37-4.8,1.39-10.14.93-14.82-1.72-3.11-1.76-5.52-4.28-7.18-7.18-3.25-5.7-3.52-12.91-.06-19.02.81-1.43,1.8-2.7,2.89-3.84-4.79-4.91-10.28-9.27-16.42-12.94-.54-.32-1.06-.66-1.61-.97-.41-.23-.82-.44-1.23-.66-27.44-14.95-59.92-12.41-84.34,4.01,10.42,12.11,13.23,29.96,5.47,44.83,12.56-20.41,39.03-27.44,60.12-15.77.14.08.28.14.42.22,6.65,3.77,11.97,8.99,15.8,15.03,3.45,6.03,9.39,10.73,15.86,14.41,9.14,5.18,19.45,6.37,28.93,4.14,3.39-.8,6.67-2.04,9.76-3.69,6.45-3.45,12.03-8.7,15.91-15.53,6-10.58,6.65-22.73,2.83-33.34-1.77-4.93-4.51-9.52-8.13-13.47-10.41-15.02-24.26-28-41.22-37.61-.14-.08-.28-.15-.41-.23Z"/>
    <path class="cls-3" d="M212.8,92.72c-.28.36-.55.73-.78,1.14-1.66,2.92-1.53,6.37.02,9.1.79,1.4,1.95,2.61,3.45,3.46,1.95,1.1,4.13,1.42,6.18,1.05,2.6-.47,4.98-2.04,6.38-4.52.55-.96.89-1.99,1.06-3.02.35-2.12-.05-4.29-1.11-6.13-.79-1.38-1.94-2.57-3.42-3.41-.52-.3-1.07-.53-1.62-.72-3.66-1.23-7.75-.01-10.16,3.04Z"/>
  </g>
  <g>
    <path class="cls-2" d="M254.87,118.17c-3.87,6.83-9.46,12.08-15.91,15.53.42,4.59.51,9.22.23,13.85-.81,13.45-4.61,26.92-11.69,39.41-7.08,12.49-16.69,22.66-27.82,30.26-3.89,2.65-7.96,4.98-12.18,7-6.65,3.17-13.65,5.53-20.84,7.03-.34,2.27-1.07,4.51-2.27,6.62-3.47,6.12-9.82,9.59-16.39,9.71-3.33.06-6.71-.72-9.81-2.47-5.36-3.04-8.68-8.29-9.51-13.95-.49-3.31-.11-6.76,1.21-10,.31-.76.65-1.51,1.07-2.24,3.44-6.07,9.72-9.53,16.24-9.71,3.38-.09,6.81.69,9.96,2.47,3.95,2.24,6.8,5.69,8.36,9.61,6.8-1.5,13.4-3.87,19.63-7.05,13.68-6.98,25.53-17.88,33.66-32.21,7.99-14.08,11.27-29.56,10.41-44.63-9.48,2.23-19.79,1.04-28.93-4.14-6.48-3.67-12.42-8.38-15.86-14.41,8.62,13.6,9.65,31.38,1.15,46.35-8.22,14.49-23.27,22.67-38.82,22.81-13.61.32-26.71,7.92-33.91,20.62-.98,1.72-1.8,3.48-2.5,5.28-1.27,3.26-2.09,6.61-2.46,9.98-1.74,15.46,5.66,31.18,20.05,39.34,6.49,3.68,13.57,5.34,20.53,5.2v.13c7.97-.14,15.88-1.04,23.63-2.66,34.08-7.13,65.04-28.3,83.57-60.96,18.52-32.66,20.8-70.1,9.43-103-2.03-5.86-4.48-11.58-7.36-17.1,3.82,10.61,3.17,22.76-2.83,33.34Z"/>
    <path class="cls-2" d="M140.34,222.82c-.24.32-.48.66-.68,1.02-1.63,2.87-1.53,6.25-.06,8.96.79,1.46,1.98,2.72,3.53,3.6,1.47.84,3.08,1.21,4.66,1.19,3.16-.05,6.22-1.71,7.9-4.66.01-.02.02-.05.04-.07,1.81-3.26,1.43-7.16-.67-9.98-.74-.99-1.69-1.86-2.83-2.51-1.52-.86-3.18-1.23-4.81-1.18-2.72.08-5.35,1.37-7.06,3.63Z"/>
  </g>
  <path class="cls-4" d="M110.33,213.9c-.79-.42-1.59-.82-2.37-1.27-.41-.23-.8-.48-1.2-.72-26.04-15.36-40.47-43.18-39.97-71.58.12-6.89,1.14-13.82,3.07-20.61,7.49.93,15.15-2.62,19.1-9.58.23-.41.43-.84.63-1.26,3.28-6.91,2.06-14.95-2.66-20.58-1.43-1.7-3.16-3.2-5.21-4.36-.99-.56-2.01-1-3.04-1.37-8.19-2.92-17.48.06-22.4,7.42-.26.39-.52.78-.76,1.19-4.78,8.44-2.46,18.98,5.04,24.72-2.13,7.16-3.34,14.46-3.67,21.75-1.48,32.81,14.82,65.29,44.93,82.98.4.24.79.49,1.2.72,1.6.91,3.22,1.74,4.85,2.54.38-3.37,1.2-6.72,2.46-9.98ZM64.23,96.1c.24-.42.51-.8.8-1.17,1.72-2.17,4.29-3.41,6.96-3.48,1.63-.05,3.28.32,4.8,1.18,1.7.96,2.97,2.39,3.75,4.03,1.06,2.22,1.22,4.84.31,7.24-.17.44-.35.87-.59,1.29-1.49,2.62-4.08,4.23-6.87,4.58-1.9.24-3.9-.1-5.69-1.11-1.42-.81-2.54-1.94-3.33-3.25-1.66-2.76-1.84-6.31-.14-9.31Z"/>
  <path class="cls-4" d="M229.21,137.39c.86,15.07-2.43,30.55-10.41,44.63-8.13,14.33-19.98,25.23-33.66,32.21-6.23,3.18-12.82,5.55-19.63,7.05-1.56-3.93-4.4-7.37-8.36-9.61-3.15-1.78-6.58-2.56-9.96-2.47-6.52.17-12.8,3.63-16.24,9.71-.42.73-.76,1.48-1.07,2.24-1.32,3.24-1.69,6.69-1.21,10,.83,5.67,4.15,10.92,9.51,13.95,3.1,1.76,6.48,2.54,9.81,2.47,6.57-.12,12.92-3.59,16.39-9.71,1.2-2.11,1.93-4.35,2.27-6.62,7.19-1.5,14.19-3.86,20.84-7.03,4.22-2.01,8.29-4.34,12.18-7,11.13-7.6,20.74-17.77,27.82-30.26,7.08-12.49,10.88-25.96,11.69-39.41.28-4.63.19-9.26-.23-13.85-3.09,1.65-6.37,2.89-9.76,3.69ZM155.72,232.85s-.02.05-.04.07c-1.67,2.95-4.73,4.61-7.9,4.66-1.58.02-3.19-.35-4.66-1.19-1.55-.88-2.73-2.14-3.53-3.6-1.47-2.71-1.57-6.09.06-8.96.2-.36.44-.7.68-1.02,1.72-2.26,4.34-3.55,7.06-3.63,1.63-.05,3.29.32,4.81,1.18,1.14.65,2.09,1.51,2.83,2.51,2.1,2.82,2.48,6.72.67,9.98Z"/>
</svg>