<?xml version="1.0" encoding="UTF-8"?>
<svg id="Layer_1" data-name="Layer 1" xmlns="http://www.w3.org/2000/svg" viewBox="0 0 771 295">
  <defs>
    <style>
      .cls-1 {
        letter-spacing: -.02em;
      }

      .cls-2 {
        letter-spacing: 0em;
      }

      .cls-3 {
        fill: #45ae6c;
      }

      .cls-3, .cls-4, .cls-5 {
        stroke-width: 0px;
      }

      .cls-4 {
        fill: #d3d94f;
      }

      .cls-6 {
        fill: #003c57;
        font-family: CoHeadline-Regular, 'Co Headline';
        font-size: 77.74px;
      }

      .cls-5 {
        fill: #2e767b;
      }

      .cls-7 {
        letter-spacing: 0em;
      }

      .cls-8 {
        letter-spacing: 0em;
      }
    </style>
  </defs>
  <g>
    <text class="cls-6" transform="translate(285.88 131.55)"><tspan class="cls-1" x="0" y="0">R</tspan><tspan class="cls-8" x="50.69" y="0">eCognition</tspan></text>
    <text class="cls-6" transform="translate(283.08 211.38)"><tspan x="0" y="0">Ci</tspan><tspan class="cls-7" x="70.35" y="0">r</tspan><tspan class="cls-2" x="101.91" y="0">cular</tspan></text>
  </g>
  <g>
    <g>
      <path class="cls-3" d="M88.23,111.55c.22-.38.39-.77.54-1.17.83-2.18.69-4.56-.28-6.59-.71-1.49-1.87-2.79-3.41-3.66-1.38-.78-2.88-1.12-4.36-1.08-2.42.07-4.76,1.19-6.33,3.17-.26.33-.51.68-.73,1.06-1.54,2.72-1.39,5.95.12,8.46.72,1.19,1.74,2.22,3.03,2.95,1.63.92,3.44,1.23,5.17,1.01,2.53-.32,4.89-1.78,6.24-4.16Z"/>
      <path class="cls-3" d="M49.94,88.36l-.13-.07c-.25.43-.51.86-.75,1.29-31.03,54.71-11.94,124.18,42.6,155.38.12.07.25.15.37.22,18.39,10.43,38.45,15.19,58.17,14.85v-.12c-6.32.13-12.76-1.38-18.66-4.73-13.08-7.42-19.8-21.71-18.22-35.76-1.48-.73-2.95-1.49-4.4-2.31-.37-.21-.72-.44-1.09-.66-27.36-16.07-42.18-45.6-40.84-75.42.3-6.62,1.4-13.26,3.33-19.77-6.81-5.22-8.93-14.8-4.58-22.47.21-.38.45-.73.69-1.08,4.47-6.69,12.92-9.39,20.36-6.74.94.34,1.87.74,2.76,1.25,1.86,1.05,3.44,2.41,4.74,3.96,4.29,5.12,5.4,12.42,2.42,18.7-.18.39-.36.77-.58,1.15-3.59,6.33-10.56,9.55-17.36,8.71-1.75,6.17-2.68,12.47-2.79,18.74-.46,25.82,12.66,51.1,36.33,65.06.37.22.72.45,1.09.66.71.4,1.44.77,2.16,1.15.63-1.63,1.39-3.23,2.27-4.79,6.55-11.55,18.46-18.14,30.83-18.44v-.31c-6.96.06-14.03-1.64-20.52-5.32-.13-.07-.24-.15-.37-.22-19.37-11.25-26.12-36.03-15.04-55.57.25-.44.51-.86.77-1.28,7.05-13.51,4.5-29.73-4.97-40.74-2-2.33-4.33-4.43-6.96-6.23-.86-.59-1.75-1.16-2.68-1.69-17.11-9.71-38.75-4.03-48.96,12.61Z"/>
    </g>
    <g>
      <path class="cls-5" d="M204.28,46.4c-54.34-30.56-123.08-11.82-154.47,41.89l.13.07c10.21-16.64,31.85-22.31,48.96-12.61.93.53,1.82,1.09,2.68,1.69,25.16-17.95,59.36-21.05,88.11-5.32.37.2.75.39,1.12.6,1.4.79,2.76,1.63,4.09,2.49,5.94,3.83,11.24,8.32,15.85,13.31,4.28-1.15,8.99-.69,13.14,1.66,2.81,1.59,4.99,3.86,6.5,6.48,2.98,5.19,3.24,11.76.08,17.33-.69,1.21-1.51,2.29-2.41,3.26-2.19,2.35-4.94,4.01-7.93,4.88-4.37,1.26-9.22.85-13.47-1.57-2.83-1.6-5.02-3.89-6.52-6.53-2.95-5.18-3.2-11.73-.05-17.28.74-1.3,1.64-2.46,2.63-3.49-4.35-4.46-9.34-8.43-14.92-11.76-.49-.29-.96-.6-1.46-.88-.37-.21-.75-.4-1.12-.6-24.94-13.59-54.46-11.28-76.66,3.64,9.47,11.01,12.03,27.23,4.97,40.74,11.42-18.55,35.48-24.94,54.64-14.33.13.07.25.13.38.2,6.05,3.43,10.88,8.17,14.36,13.66,3.13,5.48,8.53,9.76,14.42,13.1,8.31,4.71,17.68,5.79,26.3,3.76,3.08-.73,6.06-1.85,8.87-3.35,5.86-3.14,10.94-7.91,14.46-14.12,5.45-9.62,6.04-20.66,2.57-30.3-1.61-4.48-4.1-8.65-7.39-12.24-9.46-13.65-22.05-25.45-37.47-34.19-.12-.07-.25-.14-.38-.21Z"/>
      <path class="cls-5" d="M208.7,100.21c-.26.33-.5.67-.71,1.04-1.51,2.66-1.39,5.79.02,8.27.72,1.27,1.77,2.37,3.13,3.14,1.77,1,3.76,1.29,5.62.95,2.36-.43,4.52-1.86,5.8-4.1.5-.88.81-1.81.97-2.75.32-1.93-.05-3.9-1.01-5.57-.72-1.25-1.76-2.33-3.11-3.1-.48-.27-.97-.49-1.47-.65-3.33-1.12-7.05-.01-9.23,2.77Z"/>
    </g>
    <g>
      <path class="cls-4" d="M246.94,123.34c-3.52,6.21-8.6,10.98-14.46,14.12.38,4.17.46,8.38.21,12.59-.74,12.22-4.19,24.47-10.63,35.82-6.44,11.35-15.17,20.6-25.29,27.5-3.53,2.41-7.24,4.53-11.07,6.36-6.04,2.88-12.4,5.03-18.94,6.39-.31,2.06-.97,4.1-2.06,6.02-3.15,5.56-8.92,8.71-14.9,8.83-3.02.06-6.1-.65-8.92-2.25-4.87-2.76-7.89-7.53-8.65-12.68-.44-3.01-.1-6.14,1.1-9.09.28-.69.59-1.37.97-2.04,3.13-5.52,8.84-8.66,14.76-8.82,3.07-.08,6.19.62,9.05,2.24,3.59,2.04,6.18,5.17,7.59,8.74,6.18-1.36,12.18-3.52,17.84-6.4,12.43-6.35,23.21-16.25,30.59-29.28,7.26-12.8,10.25-26.86,9.46-40.56-8.62,2.03-17.99.95-26.3-3.76-5.89-3.34-11.28-7.62-14.42-13.1,7.83,12.36,8.77,28.52,1.05,42.13-7.47,13.17-21.15,20.61-35.28,20.73-12.37.29-24.28,7.2-30.83,18.74-.89,1.56-1.64,3.17-2.27,4.79-1.15,2.96-1.9,6.01-2.24,9.07-1.58,14.05,5.14,28.34,18.22,35.76,5.9,3.35,12.33,4.86,18.66,4.73v.12c7.24-.12,14.43-.94,21.48-2.41,30.97-6.48,59.12-25.72,75.96-55.41,16.84-29.69,18.91-63.72,8.57-93.62-1.84-5.33-4.08-10.53-6.69-15.54,3.47,9.65,2.88,20.69-2.57,30.3Z"/>
      <path class="cls-4" d="M142.84,218.46c-.22.29-.43.6-.62.93-1.48,2.61-1.39,5.68-.05,8.14.72,1.33,1.8,2.48,3.21,3.27,1.34.76,2.8,1.1,4.24,1.08,2.88-.04,5.66-1.55,7.18-4.23.01-.02.02-.04.03-.06,1.65-2.96,1.3-6.51-.61-9.07-.67-.9-1.53-1.69-2.57-2.28-1.38-.78-2.89-1.12-4.37-1.07-2.48.08-4.86,1.24-6.42,3.3Z"/>
    </g>
    <path class="cls-4" d="M156.82,227.59s-.02.04-.03.06c-1.52,2.68-4.3,4.19-7.18,4.23-1.44.02-2.9-.32-4.24-1.08-1.41-.8-2.48-1.95-3.21-3.27-1.34-2.46-1.43-5.53.05-8.14.19-.33.4-.63.62-.93,1.56-2.06,3.95-3.23,6.42-3.3,1.48-.05,2.99.29,4.37,1.07,1.04.59,1.9,1.37,2.57,2.28,1.91,2.56,2.26,6.11.61,9.07Z"/>
  </g>
</svg>