<?xml version="1.0" encoding="UTF-8"?>
<svg id="Layer_2" data-name="Layer 2" xmlns="http://www.w3.org/2000/svg" viewBox="0 0 558.82 138.96">
  <defs>
    <style>
      .cls-1 {
        fill: #20211e;
      }

      .cls-2 {
        fill: #539d7b;
      }
    </style>
  </defs>
  <g id="Layer_1-2" data-name="Layer 1">
    <g>
      <g>
        <g>
          <path class="cls-1" d="M163.68,62.74V23.22h23.71c8.08,0,12.45,3.42,12.45,9.62,0,4.9-2.6,8.44-9.2,8.91v.53c7.31.53,10.85,4.19,10.85,9.5,0,6.73-4.13,10.97-12.98,10.97h-24.83ZM172.52,38.91h13.86c3.25,0,4.6-1.12,4.6-3.83s-1.42-3.89-4.72-3.89h-13.75v7.73ZM172.52,54.78h14.92c3.6,0,5.07-1.12,5.07-4.31s-1.47-4.25-5.07-4.25h-14.92v8.55Z"/>
          <path class="cls-1" d="M204.73,30.18v-6.96h8.85v6.96h-8.85ZM204.73,62.74v-29.55h8.85v29.55h-8.85Z"/>
          <path class="cls-1" d="M218.24,62.74v-29.55h8.2v7.85h.53c.83-4.78,3.95-8.44,9.91-8.44,6.61,0,9.32,4.54,9.32,10.32v4.9h-8.85v-3.07c0-3.24-1.3-4.66-4.9-4.66-3.95,0-5.37,1.83-5.37,5.54v17.11h-8.85Z"/>
          <path class="cls-1" d="M249.39,62.74v-29.55h8.2v8.97h.47c.71-4.96,3.66-9.56,11.09-9.56,6.84,0,10.32,4.19,10.97,9.67h.53c.71-5.01,3.72-9.67,11.33-9.67s11.33,5.01,11.33,11.74v18.41h-8.85v-15.46c0-4.9-1.71-6.73-6.78-6.73-5.37,0-6.9,2.12-6.9,7.26v14.92h-8.85v-15.46c0-4.9-1.71-6.73-6.78-6.73-5.37,0-6.9,2.12-6.9,7.26v14.92h-8.85Z"/>
          <path class="cls-1" d="M307.78,30.18v-6.96h8.85v6.96h-8.85ZM307.78,62.74v-29.55h8.85v29.55h-8.85Z"/>
          <path class="cls-1" d="M321.29,62.74v-29.55h8.2v9.08h.53c.77-4.96,4.31-9.67,12.03-9.67s11.92,5.19,11.92,11.74v18.41h-8.85v-15.46c0-4.72-1.95-6.73-7.37-6.73s-7.61,2.24-7.61,7.26v14.92h-8.85Z"/>
          <path class="cls-1" d="M357.57,46.17c0-8.26,5.37-13.57,14.22-13.57,6.02,0,10.32,2.6,11.27,7.73h.47v-7.14h8.26v25.25c0,10.32-6.25,14.92-16.81,14.92-9.56,0-15.57-4.25-15.57-11.68h8.85c0,3.3,1.3,4.31,7.31,4.31,5.66,0,7.37-1.18,7.37-6.96v-6.67h-.47c-.94,4.37-4.42,7.37-11.03,7.37-8.79,0-13.86-5.25-13.86-13.57ZM374.5,52.12c5.66,0,8.44-1.59,8.44-5.66v-.65c0-4.01-2.83-5.54-8.32-5.54s-8.14,1.53-8.14,5.9,2.48,5.96,8.02,5.96Z"/>
          <path class="cls-1" d="M396.5,62.74V23.22h8.85v19h.47c.94-5.01,4.42-9.62,11.98-9.62,7.96,0,11.86,5.19,11.86,12.03v18.11h-8.85v-15.46c0-4.96-2.12-6.73-7.67-6.73-5.96,0-7.79,2.42-7.79,7.37v14.81h-8.85Z"/>
          <path class="cls-1" d="M433.02,55.43c0-4.37,3.24-7.08,9.56-7.73l12.68-1.3v-1.12c0-3.83-1.71-4.9-6.43-4.9s-6.31,1.18-6.31,4.54v.24h-8.91v-.18c0-7.32,6.13-12.39,15.87-12.39s14.51,5.07,14.51,12.8v17.34h-8.26v-6.78h-.47c-1.36,4.6-5.49,7.37-12.03,7.37s-10.21-2.95-10.21-7.9ZM445.76,57.08c6.02,0,9.26-1.42,9.5-5.6l-10.26,1.18c-2.12.18-3.07.77-3.07,2.18,0,1.59,1.24,2.24,3.83,2.24Z"/>
          <path class="cls-1" d="M468.47,62.74v-29.55h8.2v8.97h.47c.71-4.96,3.66-9.56,11.09-9.56,6.84,0,10.32,4.19,10.97,9.67h.53c.71-5.01,3.72-9.67,11.33-9.67s11.33,5.01,11.33,11.74v18.41h-8.85v-15.46c0-4.9-1.71-6.73-6.78-6.73-5.37,0-6.9,2.12-6.9,7.26v14.92h-8.85v-15.46c0-4.9-1.71-6.73-6.78-6.73-5.37,0-6.9,2.12-6.9,7.26v14.92h-8.85Z"/>
        </g>
        <g>
          <path class="cls-1" d="M164.61,115.59v-43.5h20.97c13.96,0,22.79,8.12,22.79,21.75s-8.83,21.75-22.79,21.75h-20.97ZM174.35,80.86v25.97h11.23c8.83,0,12.4-2.53,12.4-12.99s-3.57-12.99-12.4-12.99h-11.23Z"/>
          <path class="cls-1" d="M211.61,99.36c0-10.39,7.34-16.95,18.05-16.95s17.72,5.58,17.72,15.78c0,1.17-.13,2.01-.26,3.12h-26.49c.26,5,2.6,7.14,8.9,7.14,5.78,0,7.79-1.49,7.79-4.29v-.65h9.74v.71c0,7.08-6.88,12.01-17.21,12.01-10.84,0-18.24-5.32-18.24-16.88ZM220.77,96.18h17.27c-.26-4.29-2.86-6.17-8.57-6.17s-8.25,1.95-8.7,6.17Z"/>
          <path class="cls-1" d="M263.75,115.59l-14.8-32.53h10.84l9.74,23.05h.65l9.8-23.05h10.65l-14.87,32.53h-12.01Z"/>
          <path class="cls-1" d="M293.22,79.75v-7.66h9.74v7.66h-9.74ZM293.22,115.59v-32.53h9.74v32.53h-9.74Z"/>
          <path class="cls-1" d="M307.11,99.36c0-10.39,7.14-16.95,18.31-16.95,10.45,0,17.59,5.58,17.59,14.02v.91h-9.67v-.52c0-4.16-3.05-5.65-8.12-5.65-5.78,0-8.44,2.14-8.44,8.18s2.66,8.12,8.44,8.12c5.06,0,8.12-1.49,8.12-5.65v-.52h9.67v.91c0,8.38-7.14,14.02-17.59,14.02-11.17,0-18.31-6.62-18.31-16.88Z"/>
          <path class="cls-1" d="M346.26,99.36c0-10.39,7.34-16.95,18.05-16.95s17.72,5.58,17.72,15.78c0,1.17-.13,2.01-.26,3.12h-26.49c.26,5,2.6,7.14,8.9,7.14,5.78,0,7.79-1.49,7.79-4.29v-.65h9.74v.71c0,7.08-6.88,12.01-17.21,12.01-10.84,0-18.24-5.32-18.24-16.88ZM355.41,96.18h17.27c-.26-4.29-2.86-6.17-8.57-6.17s-8.25,1.95-8.7,6.17Z"/>
          <path class="cls-1" d="M397.94,115.59v-43.5h26.1c8.89,0,13.7,3.77,13.7,10.58,0,5.39-2.86,9.28-10.13,9.8v.58c8.05.58,11.95,4.61,11.95,10.45,0,7.4-4.54,12.08-14.28,12.08h-27.33ZM407.68,89.36h15.26c3.57,0,5.06-1.23,5.06-4.22s-1.56-4.29-5.19-4.29h-15.13v8.51ZM407.68,106.83h16.43c3.96,0,5.58-1.23,5.58-4.74s-1.62-4.67-5.58-4.67h-16.43v9.41Z"/>
          <path class="cls-1" d="M441.89,107.54c0-4.8,3.57-7.79,10.52-8.5l13.96-1.43v-1.23c0-4.22-1.88-5.39-7.08-5.39s-6.95,1.3-6.95,5v.26h-9.8v-.2c0-8.05,6.75-13.63,17.46-13.63s15.97,5.58,15.97,14.09v19.09h-9.09v-7.47h-.52c-1.49,5.06-6.04,8.12-13.25,8.12s-11.23-3.25-11.23-8.7ZM455.91,109.36c6.62,0,10.19-1.56,10.45-6.17l-11.3,1.3c-2.34.2-3.38.84-3.38,2.4,0,1.75,1.36,2.47,4.22,2.47Z"/>
          <path class="cls-1" d="M480.91,115.59v-32.53h9.03v10h.58c.84-5.45,4.74-10.65,13.25-10.65s13.12,5.71,13.12,12.92v20.26h-9.74v-17.01c0-5.19-2.14-7.4-8.12-7.4s-8.38,2.47-8.38,7.99v16.43h-9.74Z"/>
          <path class="cls-1" d="M521.81,115.59v-43.5h9.74v23.05h7.4l8.31-12.08h11.56l-11.88,15.71,11.69,16.82h-11.49l-8.12-11.75h-7.47v11.75h-9.74Z"/>
        </g>
      </g>
      <g>
        <g>
          <path class="cls-2" d="M34.84,0c19.24,0,34.84,15.6,34.84,34.84H0C0,15.6,15.6,0,34.84,0Z"/>
          <path class="cls-2" d="M34.84,34.84c19.24,0,34.84,15.6,34.84,34.84H0c0-19.24,15.6-34.84,34.84-34.84Z"/>
        </g>
        <g>
          <path class="cls-2" d="M139.37,34.84c0,19.24-15.6,34.84-34.84,34.84V0c19.24,0,34.84,15.6,34.84,34.84Z"/>
          <path class="cls-2" d="M104.53,34.84c0,19.24-15.6,34.84-34.84,34.84V0c19.24,0,34.84,15.6,34.84,34.84Z"/>
        </g>
        <g>
          <path class="cls-2" d="M104.53,138.96c-19.24,0-34.84-15.6-34.84-34.84h69.68c0,19.24-15.6,34.84-34.84,34.84Z"/>
          <path class="cls-2" d="M104.53,104.12c-19.24,0-34.84-15.6-34.84-34.84h69.68c0,19.24-15.6,34.84-34.84,34.84Z"/>
        </g>
        <g>
          <path class="cls-2" d="M0,104.12c0-19.24,15.6-34.84,34.84-34.84v69.68C15.6,138.96,0,123.36,0,104.12Z"/>
          <path class="cls-2" d="M34.84,104.12c0-19.24,15.6-34.84,34.84-34.84v69.68c-19.24,0-34.84-15.6-34.84-34.84Z"/>
        </g>
      </g>
    </g>
  </g>
</svg>